<svg xmlns="http://www.w3.org/2000/svg" width="256" height="256"><path fill-opacity=".016" d="M0 128.004v128.004l128.25-.254 128.25-.254.254-127.75L257.008 0H0v128.004m.485.496c0 70.4.119 99.053.265 63.672.146-35.38.146-92.98 0-128C.604 29.153.485 58.1.485 128.5" fill="#1976D2" fill-rule="evenodd"/><path fill-opacity=".215" d="M111 .656c-1.375.211-6.747 1.327-11.937 2.479C49.42 14.157 10.233 55.492 1.611 105.926c-2.07 12.112-2.07 32.036 0 44.148 7.44 43.521 38.087 81.089 79.554 97.518 19.4 7.686 46.772 10.478 67.975 6.934 52.395-8.76 94.798-49.787 104.415-101.026.929-4.95 2.084-9.781 2.567-10.736 1.257-2.486 1.142-31.045-.122-30.264-.576.356-1.001-.573-1.001-2.191-.002-4.108-4.501-21.809-7.407-29.144-16.429-41.467-53.997-72.114-97.518-79.554C141.471.141 118.083-.431 111 .656m9.19 19.37c-6.054 3.691-7.886 12.139-3.92 18.076 7.687 11.507 25.063 7.004 25.063-6.494 0-4.985-2.502-9.686-6.373-11.972-3.825-2.26-10.723-2.078-14.77.39M88.923 51.923C86.53 54.316 86 55.69 86 59.5s.53 5.184 2.923 7.577L91.846 70l35.827-.022c32.435-.02 36.029-.186 37.96-1.75 4.279-3.466 5.482-8.686 3.172-13.756-2.415-5.3-3.728-5.472-41.832-5.472H91.846l-2.923 2.923m33.492 23.452c-11.568 5.211-10.497 22.16 1.62 25.635 10.72 3.075 20.495-7.645 16.371-17.953-2.844-7.109-11.273-10.708-17.991-7.682M.402 128c0 8.525.154 12.012.341 7.75.188-4.262.188-11.237 0-15.5-.187-4.263-.341-.775-.341 7.75" fill="#1976D2" fill-rule="evenodd"/><path fill-opacity=".325" d="M108.5 1.459c-13.421 2.115-23.402 5.365-37 12.048-14.448 7.1-23.545 13.514-34.012 23.981A128.068 128.068 0 000 128c0 19.979 4.228 37.68 13.495 56.5C26.22 210.345 44.05 228.623 69 241.403c18.106 9.274 33.014 13.284 53 14.256 42.721 2.078 83.079-16.903 108.774-51.159 6.382-8.508 15.079-25.246 18.566-35.733 2.912-8.755 5.66-21.217 5.66-25.666 0-1.641.45-3.261 1-3.601.577-.356 1-5.697 1-12.618 0-7.745-.355-11.781-1-11.382-.585.361-1-.67-1-2.483 0-9.744-5.998-29.152-13.603-44.017C216.589 20.51 162.391-7.035 108.5 1.459m14 16.9c-5.046 2.331-7.738 6.062-8.255 11.443-.853 8.881 4.806 15.187 13.637 15.194 17.577.015 18.885-25.647 1.406-27.599-2.083-.233-5.138.2-6.788.962m-29 30.354c-3.23.778-7.427 5.381-8.081 8.865-.851 4.54 1.903 9.873 6.138 11.882 2.968 1.408 7.829 1.578 38.006 1.327l34.603-.287 2.917-3.266c3.405-3.812 3.992-10.254 1.286-14.117-3.37-4.812-5.915-5.126-40.587-5.001-17.755.064-33.182.333-34.282.597m27.621 26.94c-4.482 2.284-7.113 6.803-7.117 12.229-.013 14.458 18.409 19.33 26.001 6.877 7.107-11.656-6.494-25.417-18.884-19.106m43.329 35.754c-10.1 4.399-13.443 18.976-6.234 27.186 5.628 6.41 5.61 6.407 38.396 6.407h29.712l4.242-2.486c12.069-7.073 10.712-25.577-2.284-31.137-4.552-1.948-59.35-1.922-63.832.03M.385 128c0 6.875.16 9.688.355 6.25.196-3.437.196-9.062 0-12.5-.195-3.437-.355-.625-.355 6.25" fill="#1976D2" fill-rule="evenodd"/><path fill-opacity=".504" d="M117.5.7c-15.626 1.419-34.138 6.755-48.027 13.842C40.853 29.145 17.725 55.806 7.482 86c-11.496 33.889-9.059 68.36 7.112 100.607 8.355 16.663 23.662 34.34 39.556 45.681 23.866 17.029 57.252 25.871 85.85 22.736 30.391-3.332 55.051-14.632 76.366-34.996 21.526-20.565 35.953-49.842 38.312-77.746.342-4.042 1.004-7.585 1.472-7.874.467-.29.85-3.676.85-7.526 0-3.85-.385-6.762-.856-6.471-.471.291-1.133-2.75-1.471-6.757-3.413-40.37-30.645-79.977-68.146-99.112C165.391 3.757 139.967-1.341 117.5.7m2.957 18.163c-9.347 5.7-9.381 17.628-.07 24.575 3.473 2.591 11.246 2.687 15.063.187 9.059-5.936 8.552-20.549-.867-25.019-4.497-2.134-10.381-2.027-14.126.257M90.763 49.565C87.308 51.44 85 55.84 85 60.55c0 2.818.775 4.425 3.4 7.05l3.4 3.4h35.15c38.579 0 39.515-.131 42.533-5.967 1.916-3.706 1.917-6.389.001-10.426-3.107-6.548-3.511-6.611-41.638-6.567-28.428.033-34.818.296-37.083 1.525m32.841 24.463c-8.949 2.71-13.001 13.802-7.952 21.77 3.603 5.684 13.067 7.95 19.442 4.653 9.044-4.676 9.169-20.198.2-24.782-3.997-2.043-8.346-2.653-11.69-1.641m43.187 35.96c-8.3 2.502-13.249 10.003-12.592 19.086.506 6.993 4.06 12.231 10.185 15.013 3.699 1.68 6.928 1.871 31.898 1.891 22.85.018 28.44-.253 31.486-1.526 8.992-3.757 13.342-12.157 11.036-21.314-1.415-5.623-7.03-11.565-12.304-13.022-4.662-1.288-55.499-1.397-59.709-.128M.336 128c0 4.125.177 5.813.392 3.75.216-2.062.216-5.437 0-7.5-.215-2.062-.392-.375-.392 3.75m123.052 26.929c-1.161.497-3.074 2.128-4.25 3.623-1.909 2.427-2.138 3.978-2.138 14.501v11.784l-12.422.331c-11.497.307-12.613.511-14.971 2.729-3.795 3.569-5.029 8.166-3.294 12.267 2.779 6.569 4.52 7.299 18.289 7.668l12.398.331v11.903c0 11.738.04 11.948 2.918 15.168 2.582 2.89 3.513 3.266 8.082 3.266 4.569 0 5.5-.376 8.082-3.266 2.878-3.22 2.918-3.43 2.918-15.168v-11.903l12.398-.331c13.769-.369 15.51-1.099 18.289-7.668 1.735-4.101.501-8.698-3.294-12.267-2.358-2.218-3.474-2.422-14.971-2.729L139 184.837v-11.903c0-11.572-.076-11.988-2.75-14.98-2.974-3.328-8.9-4.722-12.862-3.025" fill="#1976D2" fill-rule="evenodd"/></svg>